<?xml version="1.0" standalone="no"?>
<!DOCTYPE svg PUBLIC "-//W3C//DTD SVG 20010904//EN"
 "http://www.w3.org/TR/2001/REC-SVG-20010904/DTD/svg10.dtd">
<svg version="1.0" xmlns="http://www.w3.org/2000/svg"
 width="4096.000000pt" height="4096.000000pt" viewBox="0 0 4096.000000 4096.000000"
 preserveAspectRatio="xMidYMid meet">
<metadata>
Created by potrace 1.14, written by Peter Selinger 2001-2017
</metadata>
<g transform="translate(0.000000,4096.000000) scale(0.100000,-0.100000)"
fill="#000000" stroke="none">
<path d="M20295 36199 l-160 -38 -6011 -2970 c-6739 -3329 -6151 -3028 -6284
-3214 l-73 -101 -38 -161 c-21 -88 -635 -2842 -1364 -6120 -729 -3278 -1398
-6284 -1487 -6680 l-160 -720 37 -165 c21 -91 42 -174 48 -185 27 -54 420
-561 4299 -5550 l4167 -5360 96 -68 96 -68 165 -39 166 -40 6688 0 6688 0 166
40 165 39 96 68 96 68 4167 5360 c2292 2948 4198 5401 4235 5452 l67 92 41
176 42 176 -1468 6597 c-807 3628 -1493 6708 -1525 6843 l-56 245 -73 101
c-136 188 460 -117 -6283 3213 l-6013 2970 -169 40 c-92 22 -175 40 -185 39
-9 -1 -88 -19 -176 -40z m6206 -3696 l6005 -2967 1485 -6670 c817 -3669 1483
-6676 1480 -6683 -3 -6 -1876 -2417 -4161 -5357 l-4155 -5345 -6675 0 -6675 0
-4161 5353 -4161 5353 1023 4599 c563 2529 1231 5533 1485 6675 l462 2075
6006 2967 c3303 1632 6013 2967 6021 2967 8 0 2717 -1335 6021 -2967z"/>
<path d="M20390 31981 c-134 -41 -241 -163 -269 -306 -9 -44 -11 -240 -9 -725
l3 -665 29 -60 c96 -194 324 -273 523 -179 68 33 140 105 171 172 l24 53 -2
706 c-1 660 -2 709 -19 759 -55 155 -197 255 -358 253 -38 0 -79 -4 -93 -8z"/>
<path d="M13275 28942 c-73 -31 -100 -50 -152 -104 -75 -80 -93 -124 -104
-251 -8 -95 -7 -113 10 -158 11 -28 38 -74 60 -102 22 -29 241 -252 488 -497
484 -481 494 -490 619 -510 174 -28 355 88 419 269 12 35 13 62 6 137 -15 167
-3 152 -548 696 -446 446 -482 479 -545 508 -56 25 -80 30 -140 29 -45 0 -88
-7 -113 -17z"/>
<path d="M27269 28937 c-31 -13 -69 -33 -85 -45 -16 -11 -239 -231 -496 -489
-524 -525 -509 -506 -528 -669 -8 -73 -7 -101 4 -138 55 -181 244 -305 422
-276 126 21 131 24 645 539 527 527 529 529 537 659 12 176 -75 332 -227 409
-79 40 -191 44 -272 10z"/>
<path d="M20070 28204 c-351 -18 -803 -92 -1180 -192 -427 -114 -959 -336
-1320 -551 -233 -139 -357 -221 -545 -361 -829 -615 -1483 -1452 -1894 -2422
-39 -92 -71 -173 -71 -180 0 -8 -4 -18 -9 -23 -14 -17 -141 -404 -141 -432 0
-7 -4 -21 -10 -31 -23 -41 -101 -385 -136 -602 -34 -209 -44 -291 -54 -425 -6
-77 -15 -167 -20 -200 -12 -85 -12 -745 0 -900 11 -136 16 -179 51 -410 109
-728 394 -1483 802 -2125 234 -367 429 -608 831 -1025 381 -396 656 -743 926
-1170 291 -458 515 -963 605 -1360 39 -171 73 -449 76 -610 1 -59 3 -64 9 -35
6 23 8 -11 8 -95 -1 -71 2 -139 6 -150 6 -16 6 -17 -3 -5 -8 12 -11 7 -11 -22
0 -21 -1 -39 -2 -40 -2 -1 -138 -4 -303 -7 l-301 -6 -66 -33 c-111 -55 -189
-159 -209 -281 -5 -31 -11 -69 -14 -86 -4 -25 -3 -26 5 -10 7 15 8 7 4 -27
-12 -98 84 -242 200 -298 86 -41 157 -50 426 -50 197 0 239 -3 258 -16 12 -8
22 -21 22 -29 0 -7 5 -15 12 -17 9 -3 9 -104 -1 -444 -7 -241 -17 -486 -21
-542 -7 -71 -6 -120 2 -155 6 -30 8 -90 4 -147 -11 -176 -8 -1409 4 -1495 20
-137 59 -309 101 -441 308 -963 1134 -1670 2126 -1819 345 -52 808 50 1239
274 754 392 1271 1119 1400 1971 17 113 18 765 3 1485 -5 248 -12 644 -15 880
l-7 430 26 31 26 31 188 5 c209 6 263 19 346 82 80 61 147 173 147 246 0 83
-20 210 -40 248 -43 87 -132 164 -224 195 -39 14 -89 17 -237 17 -235 0 -221
-9 -223 142 -1 42 2 72 5 66 6 -10 23 214 23 310 0 28 3 52 7 52 3 0 9 39 13
88 27 338 178 797 405 1237 292 565 680 1097 1141 1565 510 518 843 977 1139
1570 254 511 422 1018 520 1580 34 189 51 345 46 412 -3 44 -2 52 4 28 27
-126 26 876 -2 1159 -16 168 -31 279 -47 366 -6 28 -21 109 -35 180 -55 289
-113 510 -203 765 -17 47 -35 101 -42 120 -6 19 -15 44 -20 55 -5 11 -41 97
-80 190 -417 994 -1156 1882 -2096 2517 -451 304 -1027 581 -1506 724 -129 38
-161 47 -268 75 -259 67 -534 116 -838 150 -143 15 -270 21 -537 23 -192 2
-384 2 -425 0z m765 -819 c477 -42 878 -129 1310 -287 814 -296 1542 -812
2120 -1503 563 -674 939 -1498 1080 -2370 25 -155 55 -423 55 -497 0 -37 5
-70 10 -73 12 -8 12 -421 0 -585 -13 -171 -37 -374 -55 -470 -9 -47 -20 -112
-26 -144 -9 -51 -30 -142 -95 -400 -14 -57 -68 -232 -84 -271 -4 -11 -16 -42
-25 -70 -10 -27 -23 -63 -30 -80 -7 -16 -22 -55 -34 -85 -26 -64 -26 -66 -82
-190 -97 -219 -264 -519 -395 -710 -196 -288 -365 -489 -684 -815 -113 -116
-231 -240 -261 -276 -29 -36 -97 -117 -150 -180 -174 -207 -372 -473 -510
-684 -104 -159 -219 -343 -219 -350 0 -2 -23 -43 -50 -91 -97 -167 -250 -486
-316 -659 -20 -49 -39 -100 -44 -112 -13 -31 -77 -221 -90 -268 -57 -198 -89
-349 -115 -535 -16 -116 -46 -511 -52 -687 -2 -62 -8 -113 -14 -113 -5 0 -9
-7 -9 -15 0 -30 -39 -35 -294 -35 -217 0 -257 2 -268 15 -7 9 -19 22 -25 30
-17 18 -19 4125 -3 4125 6 0 10 6 10 14 0 36 52 72 249 170 218 110 313 170
556 351 154 115 381 335 506 490 222 275 384 552 524 895 54 132 144 488 171
675 24 167 21 669 -6 825 -5 30 -12 87 -15 125 -4 39 -17 111 -30 160 -14 50
-33 128 -44 175 -32 136 -57 222 -80 266 -20 41 -43 99 -64 164 -6 19 -21 51
-32 70 -12 19 -25 47 -29 62 -3 16 -20 49 -36 75 -17 26 -30 51 -30 56 0 16
-309 474 -329 486 -4 4 -32 35 -62 71 -76 91 -241 260 -311 317 -33 26 -76 64
-96 83 -53 51 -375 267 -477 320 -16 9 -39 21 -50 27 -57 32 -251 117 -365
158 -41 16 -93 36 -115 46 -37 17 -87 30 -160 43 -16 3 -64 14 -105 25 -41 11
-156 34 -255 52 -173 30 -191 32 -460 32 -262 1 -290 -1 -435 -26 -85 -16
-182 -34 -215 -42 -33 -7 -112 -25 -175 -40 -63 -14 -123 -30 -132 -35 -10 -6
-50 -22 -90 -36 -40 -14 -97 -34 -126 -44 -29 -11 -65 -25 -80 -33 -120 -61
-150 -76 -169 -81 -27 -8 -255 -143 -338 -199 -81 -55 -243 -176 -270 -201
-12 -12 -50 -46 -85 -76 -84 -74 -215 -205 -248 -249 -15 -20 -50 -63 -78 -96
-28 -33 -85 -107 -127 -165 -42 -58 -89 -123 -105 -145 -49 -68 -212 -375
-212 -400 0 -6 -11 -26 -24 -44 -14 -18 -28 -50 -31 -72 -4 -21 -11 -41 -16
-45 -5 -3 -9 -12 -9 -21 0 -8 -7 -29 -14 -46 -8 -18 -25 -63 -36 -102 -12 -38
-30 -96 -41 -128 -11 -32 -24 -88 -29 -125 -6 -37 -18 -94 -27 -127 -9 -33
-18 -93 -20 -133 -3 -40 -8 -70 -11 -68 -4 2 -8 -31 -8 -73 -1 -43 -7 -101
-13 -130 -6 -28 -11 -105 -11 -171 0 -81 -4 -120 -12 -122 -8 -3 -7 -27 5 -94
9 -49 20 -137 24 -194 5 -73 9 -96 14 -75 4 19 6 4 5 -40 -1 -93 46 -296 125
-530 227 -679 669 -1245 1294 -1658 147 -97 429 -245 548 -289 64 -23 117 -61
117 -84 0 -8 5 -14 10 -14 7 0 10 -182 8 -565 -2 -311 0 -565 4 -565 3 0 7
-210 8 -467 2 -489 9 -1035 14 -1163 2 -41 7 -357 11 -702 7 -638 6 -657 -29
-680 -6 -4 -122 -8 -258 -8 -211 0 -249 2 -262 16 -21 21 -25 41 -30 159 -8
202 -26 462 -35 530 -6 39 -13 97 -16 130 -7 66 -28 185 -51 285 -9 36 -22 93
-30 127 -24 110 -127 421 -173 528 -5 11 -16 36 -25 57 -9 20 -16 38 -16 41 0
6 -69 155 -136 293 -24 50 -63 127 -87 170 -24 44 -61 111 -82 149 -44 80
-198 328 -264 425 -304 447 -576 782 -925 1140 -410 420 -650 735 -886 1165
-65 118 -210 417 -210 433 0 4 -6 18 -13 32 -7 14 -21 48 -31 75 -10 28 -25
64 -32 80 -18 41 -101 289 -131 394 -36 121 -83 327 -109 471 -20 110 -51 342
-67 500 -12 131 -16 572 -4 650 3 25 11 106 17 180 70 857 373 1700 864 2408
415 598 994 1132 1611 1487 310 179 777 381 920 398 22 3 65 15 95 27 76 31
112 41 105 29 -4 -5 -15 -9 -25 -9 -10 0 -22 -4 -25 -10 -3 -5 -14 -10 -23
-10 -20 0 -49 -16 -191 -105 -56 -35 -159 -135 -199 -193 -85 -125 -100 -150
-116 -200 -10 -28 -21 -54 -26 -57 -4 -3 -11 -23 -15 -45 -4 -22 -11 -40 -16
-40 -5 0 -9 -25 -9 -56 0 -30 -4 -53 -8 -50 -4 2 -7 -25 -5 -62 1 -36 -2 -69
-8 -72 -6 -4 -7 -35 -2 -81 5 -54 9 -67 14 -49 6 23 7 22 8 -8 1 -20 -3 -31
-9 -27 -16 10 -12 -11 20 -108 56 -166 112 -259 225 -373 148 -149 282 -231
449 -274 112 -28 340 -28 452 0 169 42 345 154 475 300 35 40 80 91 99 112 45
50 68 55 320 64 757 26 1481 -177 2105 -591 607 -403 1078 -983 1349 -1662 55
-139 125 -349 127 -381 1 -11 4 -8 10 8 7 20 8 18 4 -11 -3 -23 6 -80 25 -153
16 -65 31 -127 31 -139 1 -18 3 -16 10 8 7 27 8 26 4 -9 -2 -22 2 -81 10 -130
8 -50 17 -134 20 -186 3 -52 10 -131 16 -175 10 -87 17 -305 9 -300 -3 2 -4
-43 -4 -98 1 -90 0 -94 -6 -37 -5 54 -6 45 -6 -54 0 -83 -4 -121 -12 -124 -7
-2 -12 -8 -12 -13 0 -6 5 -7 12 -3 8 5 9 0 5 -17 -4 -13 -7 -34 -7 -47 0 -13
-4 -20 -10 -17 -6 4 -10 -16 -10 -52 0 -37 -3 -53 -9 -44 -5 8 -7 -4 -4 -31 3
-28 1 -48 -6 -52 -6 -4 -11 -21 -11 -37 0 -16 -7 -41 -16 -54 -9 -14 -14 -32
-10 -40 3 -8 1 -15 -4 -15 -6 0 -10 -22 -10 -48 0 -26 -4 -52 -8 -57 -5 -6
-17 -39 -27 -75 -11 -36 -25 -76 -32 -90 -7 -14 -13 -33 -13 -42 0 -9 -4 -19
-9 -22 -5 -4 -12 -24 -16 -45 -4 -22 -13 -45 -21 -52 -8 -6 -14 -22 -14 -35 0
-12 -6 -29 -13 -36 -8 -7 -17 -30 -21 -49 -3 -20 -15 -44 -26 -54 -11 -10 -20
-25 -20 -32 0 -20 -113 -243 -141 -278 -4 -6 -22 -37 -39 -70 -17 -33 -36 -63
-42 -66 -5 -3 -15 -16 -21 -27 -36 -65 -97 -155 -145 -211 -30 -35 -64 -81
-77 -101 -13 -20 -45 -60 -72 -90 l-49 -53 -34 19 c-24 12 -57 18 -105 18 -59
1 -80 -4 -137 -32 -37 -18 -82 -48 -100 -67 -64 -68 -78 -86 -78 -98 0 -7 -4
-17 -8 -23 -19 -22 -31 -85 -34 -169 -3 -78 0 -96 20 -137 33 -66 101 -139
160 -171 89 -48 245 -52 332 -7 63 32 137 111 170 182 32 67 36 88 19 88 -11
0 -2 40 10 50 4 3 12 23 19 45 7 24 39 71 78 115 320 364 595 837 755 1298 85
247 172 622 173 754 1 42 4 70 7 61 9 -28 29 196 32 382 3 99 1 146 -2 105 -5
-61 -8 -37 -15 135 -4 116 -9 238 -10 271 0 34 -4 58 -7 52 -5 -8 -18 104 -23
189 0 11 -4 19 -8 16 -7 -4 -13 59 -10 100 1 10 -2 16 -7 13 -4 -3 -14 35 -20
84 -7 50 -16 92 -21 95 -4 3 -13 29 -20 57 -24 112 -44 183 -52 193 -4 5 -8
19 -8 32 0 13 -4 23 -8 23 -5 0 -15 26 -22 57 -7 31 -18 62 -25 69 -7 7 -21
40 -31 73 -10 34 -21 61 -25 61 -4 0 -10 15 -14 33 -4 17 -13 41 -20 52 -7 11
-16 35 -19 53 -4 17 -11 34 -16 37 -5 3 -30 48 -55 99 -25 52 -53 100 -60 106
-8 7 -15 20 -15 29 0 9 -13 34 -28 57 -15 23 -38 60 -52 83 -36 60 -88 139
-140 211 -25 34 -49 70 -55 79 -5 9 -13 18 -16 21 -4 3 -28 34 -55 70 -149
198 -521 567 -684 681 -19 13 -55 40 -80 60 -62 49 -178 129 -198 136 -10 3
-26 14 -37 23 -34 29 -172 109 -296 171 -65 33 -121 64 -124 69 -3 6 -13 10
-20 10 -8 0 -38 11 -67 24 -88 40 -171 73 -203 80 -16 4 -37 13 -45 21 -8 7
-39 18 -69 25 -30 7 -66 19 -80 26 -14 8 -34 14 -43 14 -9 0 -20 5 -23 11 -4
6 -13 8 -21 5 -7 -3 -16 -1 -18 3 -3 4 -40 14 -83 21 -43 7 -87 19 -98 26 -11
7 -69 20 -130 29 -60 9 -135 21 -165 26 -30 6 -75 13 -100 15 -25 3 -94 10
-155 17 -60 6 -232 12 -382 12 -149 0 -271 2 -270 5 1 3 -3 23 -10 45 -6 22
-16 92 -23 155 -6 63 -14 119 -19 125 -4 5 -16 37 -26 70 -10 33 -26 71 -37
84 -10 13 -18 28 -18 33 0 5 -11 24 -25 42 -14 18 -25 38 -25 44 0 7 -4 12
-10 12 -5 0 -10 6 -10 13 0 17 -188 207 -205 207 -5 0 -23 11 -41 25 -29 22
-147 81 -229 115 -30 12 -360 31 -425 24 -22 -2 -15 2 20 11 30 7 80 23 111
34 99 36 419 88 679 110 167 14 681 12 865 -4z m3262 -4387 c-3 -8 -6 -5 -6 6
-1 11 2 17 5 13 3 -3 4 -12 1 -19z m1320 -325 c-3 -10 -5 -2 -5 17 0 19 2 27
5 18 2 -10 2 -26 0 -35z m-1260 -145 c-2 -24 -4 -7 -4 37 0 44 2 63 4 43 2
-21 2 -57 0 -80z m340 -515 c-2 -37 -3 -9 -3 62 0 72 1 102 3 68 2 -34 2 -93
0 -130z m-3620 -79 c-3 -3 -12 -4 -19 -1 -8 3 -5 6 6 6 11 1 17 -2 13 -5z
m-45 -31 c-3 -16 -7 -22 -10 -15 -4 13 4 42 11 42 2 0 2 -12 -1 -27z m-3635
-175 c-3 -7 -5 -2 -5 12 0 14 2 19 5 13 2 -7 2 -19 0 -25z m6300 0 c-3 -8 -6
-5 -6 6 -1 11 2 17 5 13 3 -3 4 -12 1 -19z m-10 -90 c-2 -13 -4 -5 -4 17 -1
22 1 32 4 23 2 -10 2 -28 0 -40z m-10 -90 c-2 -13 -4 -5 -4 17 -1 22 1 32 4
23 2 -10 2 -28 0 -40z m940 -100 c-3 -8 -6 -5 -6 6 -1 11 2 17 5 13 3 -3 4
-12 1 -19z m-7160 -90 c-3 -8 -6 -5 -6 6 -1 11 2 17 5 13 3 -3 4 -12 1 -19z
m7100 -140 c-3 -8 -6 -5 -6 6 -1 11 2 17 5 13 3 -3 4 -12 1 -19z m-3667 -2367
l30 -28 0 -1965 c0 -1533 -3 -1970 -12 -1990 -9 -19 -23 -28 -48 -32 -47 -8
-469 -8 -508 0 -64 13 -61 -38 -67 965 -4 502 -10 920 -15 929 -4 8 -11 482
-15 1052 l-7 1038 30 30 30 30 276 0 276 0 30 -29z m2217 -3328 c-3 -10 -5 -4
-5 12 0 17 2 24 5 18 2 -7 2 -21 0 -30z m-10 -105 c-3 -8 -6 -5 -6 6 -1 11 2
17 5 13 3 -3 4 -12 1 -19z m-869 -1397 c9 -11 23 -27 30 -35 10 -12 12 -79 8
-298 -2 -156 -5 -291 -7 -300 -3 -17 -89 -18 -1635 -18 l-1632 0 -6 28 c-4 15
-10 144 -13 287 -5 251 -5 262 15 302 12 23 27 43 34 46 7 3 727 6 1601 6
1555 1 1587 1 1605 -18z m37 -1476 c18 -17 25 -36 26 -67 1 -24 3 -65 4 -93
15 -207 15 -232 -1 -277 -10 -31 -22 -48 -37 -52 -28 -7 -3245 -8 -3273 0 -12
3 -27 17 -33 30 -14 32 -15 446 -1 424 8 -13 10 -12 10 3 0 9 9 26 20 37 20
20 33 20 1640 20 l1621 0 24 -25z m-17 -1309 c20 -18 23 -27 18 -61 -17 -109
-97 -329 -172 -473 -252 -480 -676 -812 -1224 -954 -221 -57 -376 -45 -665 53
-353 120 -700 382 -927 700 -58 81 -178 301 -215 394 -27 68 -74 217 -83 265
-9 47 -8 53 13 76 l22 24 1575 2 c866 2 1589 1 1605 -1 17 -2 41 -13 53 -25z"/>
<path d="M24504 22500 c0 -52 1 -74 3 -47 2 26 2 68 0 95 -2 26 -3 4 -3 -48z"/>
<path d="M23492 22470 c0 -14 2 -19 5 -12 2 6 2 18 0 25 -3 6 -5 1 -5 -13z"/>
<path d="M17153 22040 c0 -36 2 -50 4 -32 2 17 2 47 0 65 -2 17 -4 3 -4 -33z"/>
<path d="M20074 16980 c0 -124 2 -174 3 -112 2 61 2 163 0 225 -1 61 -3 11 -3
-113z"/>
<path d="M11097 22706 c-61 -17 -152 -79 -190 -131 -53 -73 -67 -118 -69 -228
l-2 -102 -6 75 -6 75 -2 -66 c-4 -130 50 -239 160 -321 99 -74 82 -73 823 -73
525 0 671 3 713 14 114 29 234 143 266 250 21 72 7 231 -26 303 -34 73 -112
152 -186 186 l-57 27 -685 2 c-535 1 -695 -1 -733 -11z"/>
<path d="M28425 22702 c-102 -35 -179 -107 -226 -207 -33 -73 -43 -230 -18
-303 24 -71 78 -142 142 -186 105 -73 80 -70 787 -74 428 -2 656 1 700 8 88
15 161 52 220 112 73 74 102 143 105 248 l2 85 -6 -70 -7 -70 -2 103 c-2 89
-6 111 -29 160 -33 71 -105 142 -180 179 l-58 28 -690 2 c-636 3 -694 1 -740
-15z"/>
</g>
</svg>
